<svg xmlns="http://www.w3.org/2000/svg" xmlns:xlink="http://www.w3.org/1999/xlink" width="1200" zoomAndPan="magnify" viewBox="0 0 900 187.499995" height="250" preserveAspectRatio="xMidYMid meet" version="1.0"><defs><g/><clipPath id="40f279f743"><path d="M 15.421875 2.238281 L 152 2.238281 L 152 139 L 15.421875 139 Z M 15.421875 2.238281 " clip-rule="nonzero"/></clipPath><clipPath id="8d8ed5d113"><path d="M 106.417969 2.21875 C 59.910156 2.21875 62.816406 22.410156 62.816406 22.410156 L 62.867188 43.332031 L 107.246094 43.332031 L 107.246094 49.613281 L 45.242188 49.613281 C 45.242188 49.613281 15.480469 46.234375 15.480469 93.222656 C 15.480469 140.210938 41.457031 138.542969 41.457031 138.542969 L 56.957031 138.542969 L 56.957031 116.738281 C 56.957031 116.738281 56.121094 90.730469 82.515625 90.730469 L 126.53125 90.730469 C 126.53125 90.730469 151.257812 91.132812 151.257812 66.796875 L 151.257812 26.566406 C 151.257812 26.566406 155.019531 2.21875 106.417969 2.21875 Z M 81.945312 16.285156 C 86.363281 16.285156 89.929688 19.859375 89.929688 24.28125 C 89.929688 28.703125 86.363281 32.277344 81.945312 32.277344 C 77.53125 32.277344 73.960938 28.703125 73.960938 24.28125 C 73.960938 19.859375 77.53125 16.285156 81.945312 16.285156 Z M 81.945312 16.285156 " clip-rule="nonzero"/></clipPath><linearGradient x1="0.0041684" gradientTransform="matrix(135.844044, 0, 0, 136.334192, 15.482324, 2.217487)" y1="-0.00405725" x2="1.027757" gradientUnits="userSpaceOnUse" y2="1.01158" id="d864eaf55c"><stop stop-opacity="1" stop-color="rgb(21.998596%, 49.398804%, 72.198486%)" offset="0"/><stop stop-opacity="1" stop-color="rgb(21.99707%, 49.383545%, 72.171021%)" offset="0.125"/><stop stop-opacity="1" stop-color="rgb(21.986389%, 49.269104%, 71.974182%)" offset="0.140625"/><stop stop-opacity="1" stop-color="rgb(21.966553%, 49.072266%, 71.633911%)" offset="0.15625"/><stop stop-opacity="1" stop-color="rgb(21.948242%, 48.875427%, 71.29364%)" offset="0.171875"/><stop stop-opacity="1" stop-color="rgb(21.928406%, 48.678589%, 70.953369%)" offset="0.1875"/><stop stop-opacity="1" stop-color="rgb(21.910095%, 48.48175%, 70.611572%)" offset="0.203125"/><stop stop-opacity="1" stop-color="rgb(21.890259%, 48.286438%, 70.271301%)" offset="0.21875"/><stop stop-opacity="1" stop-color="rgb(21.870422%, 48.0896%, 69.93103%)" offset="0.234375"/><stop stop-opacity="1" stop-color="rgb(21.852112%, 47.892761%, 69.590759%)" offset="0.25"/><stop stop-opacity="1" stop-color="rgb(21.832275%, 47.695923%, 69.250488%)" offset="0.265625"/><stop stop-opacity="1" stop-color="rgb(21.813965%, 47.499084%, 68.908691%)" offset="0.28125"/><stop stop-opacity="1" stop-color="rgb(21.794128%, 47.302246%, 68.56842%)" offset="0.296875"/><stop stop-opacity="1" stop-color="rgb(21.775818%, 47.105408%, 68.228149%)" offset="0.3125"/><stop stop-opacity="1" stop-color="rgb(21.755981%, 46.908569%, 67.887878%)" offset="0.328125"/><stop stop-opacity="1" stop-color="rgb(21.736145%, 46.711731%, 67.546082%)" offset="0.34375"/><stop stop-opacity="1" stop-color="rgb(21.717834%, 46.514893%, 67.205811%)" offset="0.359375"/><stop stop-opacity="1" stop-color="rgb(21.697998%, 46.31958%, 66.86554%)" offset="0.375"/><stop stop-opacity="1" stop-color="rgb(21.679688%, 46.122742%, 66.525269%)" offset="0.390625"/><stop stop-opacity="1" stop-color="rgb(21.659851%, 45.925903%, 66.184998%)" offset="0.40625"/><stop stop-opacity="1" stop-color="rgb(21.641541%, 45.729065%, 65.843201%)" offset="0.421875"/><stop stop-opacity="1" stop-color="rgb(21.621704%, 45.532227%, 65.50293%)" offset="0.4375"/><stop stop-opacity="1" stop-color="rgb(21.601868%, 45.335388%, 65.162659%)" offset="0.453125"/><stop stop-opacity="1" stop-color="rgb(21.583557%, 45.13855%, 64.822388%)" offset="0.46875"/><stop stop-opacity="1" stop-color="rgb(21.563721%, 44.941711%, 64.482117%)" offset="0.484375"/><stop stop-opacity="1" stop-color="rgb(21.54541%, 44.744873%, 64.14032%)" offset="0.494335"/><stop stop-opacity="1" stop-color="rgb(21.536255%, 44.647217%, 63.970947%)" offset="0.5"/><stop stop-opacity="1" stop-color="rgb(21.525574%, 44.548035%, 63.800049%)" offset="0.505665"/><stop stop-opacity="1" stop-color="rgb(21.516418%, 44.450378%, 63.630676%)" offset="0.515625"/><stop stop-opacity="1" stop-color="rgb(21.505737%, 44.352722%, 63.459778%)" offset="0.53125"/><stop stop-opacity="1" stop-color="rgb(21.487427%, 44.155884%, 63.119507%)" offset="0.546875"/><stop stop-opacity="1" stop-color="rgb(21.46759%, 43.959045%, 62.77771%)" offset="0.5625"/><stop stop-opacity="1" stop-color="rgb(21.44928%, 43.762207%, 62.437439%)" offset="0.578125"/><stop stop-opacity="1" stop-color="rgb(21.429443%, 43.565369%, 62.097168%)" offset="0.59375"/><stop stop-opacity="1" stop-color="rgb(21.411133%, 43.36853%, 61.756897%)" offset="0.609375"/><stop stop-opacity="1" stop-color="rgb(21.391296%, 43.171692%, 61.416626%)" offset="0.625"/><stop stop-opacity="1" stop-color="rgb(21.37146%, 42.974854%, 61.074829%)" offset="0.640625"/><stop stop-opacity="1" stop-color="rgb(21.353149%, 42.778015%, 60.734558%)" offset="0.65625"/><stop stop-opacity="1" stop-color="rgb(21.333313%, 42.582703%, 60.394287%)" offset="0.671875"/><stop stop-opacity="1" stop-color="rgb(21.315002%, 42.385864%, 60.054016%)" offset="0.6875"/><stop stop-opacity="1" stop-color="rgb(21.295166%, 42.189026%, 59.713745%)" offset="0.703125"/><stop stop-opacity="1" stop-color="rgb(21.276855%, 41.992188%, 59.371948%)" offset="0.71875"/><stop stop-opacity="1" stop-color="rgb(21.257019%, 41.795349%, 59.031677%)" offset="0.734375"/><stop stop-opacity="1" stop-color="rgb(21.237183%, 41.598511%, 58.691406%)" offset="0.75"/><stop stop-opacity="1" stop-color="rgb(21.218872%, 41.401672%, 58.351135%)" offset="0.765625"/><stop stop-opacity="1" stop-color="rgb(21.203613%, 41.25061%, 58.09021%)" offset="0.78125"/><stop stop-opacity="1" stop-color="rgb(21.199036%, 41.19873%, 57.998657%)" offset="0.8125"/><stop stop-opacity="1" stop-color="rgb(21.199036%, 41.19873%, 57.998657%)" offset="0.875"/><stop stop-opacity="1" stop-color="rgb(21.199036%, 41.19873%, 57.998657%)" offset="1"/></linearGradient><clipPath id="2f9075794f"><path d="M 62 48 L 198.679688 48 L 198.679688 184.75 L 62 184.75 Z M 62 48 " clip-rule="nonzero"/></clipPath><clipPath id="0264b29842"><path d="M 107.738281 184.699219 C 154.242188 184.699219 151.335938 164.503906 151.335938 164.503906 L 151.289062 143.578125 L 106.90625 143.578125 L 106.90625 137.300781 L 168.910156 137.300781 C 168.910156 137.300781 198.671875 140.675781 198.671875 93.695312 C 198.671875 46.707031 172.699219 48.371094 172.699219 48.371094 L 157.199219 48.371094 L 157.199219 70.175781 C 157.199219 70.175781 158.03125 96.1875 131.640625 96.1875 L 87.617188 96.1875 C 87.617188 96.1875 62.890625 95.785156 62.890625 120.121094 L 62.890625 160.351562 C 62.890625 160.351562 59.136719 184.699219 107.738281 184.699219 Z M 132.207031 170.628906 C 127.796875 170.628906 124.222656 167.050781 124.222656 162.636719 C 124.222656 158.210938 127.796875 154.640625 132.207031 154.640625 C 136.625 154.640625 140.191406 158.210938 140.191406 162.636719 C 140.191406 167.050781 136.625 170.628906 132.207031 170.628906 Z M 132.207031 170.628906 " clip-rule="nonzero"/></clipPath><linearGradient x1="-0.0326453" gradientTransform="matrix(135.848153, 0, 0, 136.334877, 62.825141, 48.365546)" y1="-0.00636592" x2="1.013978" gradientUnits="userSpaceOnUse" y2="0.985247" id="b0e5589962"><stop stop-opacity="1" stop-color="rgb(100%, 87.799072%, 32.199097%)" offset="0"/><stop stop-opacity="1" stop-color="rgb(100%, 87.799072%, 32.199097%)" offset="0.125"/><stop stop-opacity="1" stop-color="rgb(100%, 87.799072%, 32.199097%)" offset="0.1875"/><stop stop-opacity="1" stop-color="rgb(100%, 87.759399%, 32.15332%)" offset="0.21875"/><stop stop-opacity="1" stop-color="rgb(100%, 87.590027%, 31.959534%)" offset="0.234375"/><stop stop-opacity="1" stop-color="rgb(100%, 87.332153%, 31.661987%)" offset="0.25"/><stop stop-opacity="1" stop-color="rgb(100%, 87.07428%, 31.365967%)" offset="0.265625"/><stop stop-opacity="1" stop-color="rgb(100%, 86.816406%, 31.06842%)" offset="0.28125"/><stop stop-opacity="1" stop-color="rgb(100%, 86.558533%, 30.7724%)" offset="0.296875"/><stop stop-opacity="1" stop-color="rgb(100%, 86.300659%, 30.474854%)" offset="0.3125"/><stop stop-opacity="1" stop-color="rgb(100%, 86.04126%, 30.177307%)" offset="0.328125"/><stop stop-opacity="1" stop-color="rgb(100%, 85.783386%, 29.881287%)" offset="0.34375"/><stop stop-opacity="1" stop-color="rgb(100%, 85.525513%, 29.58374%)" offset="0.359375"/><stop stop-opacity="1" stop-color="rgb(100%, 85.267639%, 29.28772%)" offset="0.375"/><stop stop-opacity="1" stop-color="rgb(100%, 85.009766%, 28.990173%)" offset="0.390625"/><stop stop-opacity="1" stop-color="rgb(100%, 84.751892%, 28.694153%)" offset="0.40625"/><stop stop-opacity="1" stop-color="rgb(100%, 84.494019%, 28.396606%)" offset="0.421875"/><stop stop-opacity="1" stop-color="rgb(100%, 84.236145%, 28.100586%)" offset="0.4375"/><stop stop-opacity="1" stop-color="rgb(100%, 83.978271%, 27.80304%)" offset="0.453125"/><stop stop-opacity="1" stop-color="rgb(100%, 83.720398%, 27.505493%)" offset="0.46875"/><stop stop-opacity="1" stop-color="rgb(100%, 83.460999%, 27.209473%)" offset="0.482837"/><stop stop-opacity="1" stop-color="rgb(100%, 83.332825%, 27.061462%)" offset="0.484375"/><stop stop-opacity="1" stop-color="rgb(100%, 83.203125%, 26.911926%)" offset="0.5"/><stop stop-opacity="1" stop-color="rgb(100%, 82.945251%, 26.615906%)" offset="0.515625"/><stop stop-opacity="1" stop-color="rgb(100%, 82.687378%, 26.318359%)" offset="0.517163"/><stop stop-opacity="1" stop-color="rgb(100%, 82.559204%, 26.170349%)" offset="0.53125"/><stop stop-opacity="1" stop-color="rgb(100%, 82.429504%, 26.022339%)" offset="0.546875"/><stop stop-opacity="1" stop-color="rgb(100%, 82.171631%, 25.724792%)" offset="0.5625"/><stop stop-opacity="1" stop-color="rgb(100%, 81.913757%, 25.428772%)" offset="0.578125"/><stop stop-opacity="1" stop-color="rgb(100%, 81.655884%, 25.131226%)" offset="0.59375"/><stop stop-opacity="1" stop-color="rgb(100%, 81.39801%, 24.835205%)" offset="0.609375"/><stop stop-opacity="1" stop-color="rgb(100%, 81.138611%, 24.537659%)" offset="0.625"/><stop stop-opacity="1" stop-color="rgb(100%, 80.880737%, 24.240112%)" offset="0.640625"/><stop stop-opacity="1" stop-color="rgb(100%, 80.622864%, 23.944092%)" offset="0.65625"/><stop stop-opacity="1" stop-color="rgb(100%, 80.36499%, 23.646545%)" offset="0.671875"/><stop stop-opacity="1" stop-color="rgb(100%, 80.107117%, 23.350525%)" offset="0.6875"/><stop stop-opacity="1" stop-color="rgb(100%, 79.849243%, 23.052979%)" offset="0.703125"/><stop stop-opacity="1" stop-color="rgb(100%, 79.59137%, 22.756958%)" offset="0.71875"/><stop stop-opacity="1" stop-color="rgb(100%, 79.333496%, 22.459412%)" offset="0.734375"/><stop stop-opacity="1" stop-color="rgb(100%, 79.075623%, 22.163391%)" offset="0.75"/><stop stop-opacity="1" stop-color="rgb(100%, 78.816223%, 21.865845%)" offset="0.765625"/><stop stop-opacity="1" stop-color="rgb(100%, 78.55835%, 21.568298%)" offset="0.78125"/><stop stop-opacity="1" stop-color="rgb(100%, 78.300476%, 21.272278%)" offset="0.796875"/><stop stop-opacity="1" stop-color="rgb(100%, 78.042603%, 20.974731%)" offset="0.8125"/><stop stop-opacity="1" stop-color="rgb(100%, 77.784729%, 20.678711%)" offset="0.828125"/><stop stop-opacity="1" stop-color="rgb(100%, 77.526855%, 20.381165%)" offset="0.84375"/><stop stop-opacity="1" stop-color="rgb(100%, 77.268982%, 20.085144%)" offset="0.859375"/><stop stop-opacity="1" stop-color="rgb(100%, 77.011108%, 19.787598%)" offset="0.875"/><stop stop-opacity="1" stop-color="rgb(100%, 76.753235%, 19.491577%)" offset="0.890625"/><stop stop-opacity="1" stop-color="rgb(100%, 76.560974%, 19.270325%)" offset="0.90625"/><stop stop-opacity="1" stop-color="rgb(100%, 76.499939%, 19.198608%)" offset="0.9375"/><stop stop-opacity="1" stop-color="rgb(100%, 76.499939%, 19.198608%)" offset="1"/></linearGradient></defs><g clip-path="url(#40f279f743)"><g clip-path="url(#8d8ed5d113)"><path fill="url(#d864eaf55c)" d="M 15.480469 2.238281 L 15.480469 140.210938 L 155.019531 140.210938 L 155.019531 2.238281 Z M 15.480469 2.238281 " fill-rule="nonzero"/></g></g><g clip-path="url(#2f9075794f)"><g clip-path="url(#0264b29842)"><path fill="url(#b0e5589962)" d="M 59.136719 46.707031 L 59.136719 184.699219 L 198.671875 184.699219 L 198.671875 46.707031 Z M 59.136719 46.707031 " fill-rule="nonzero"/></g></g><g fill="#737373" fill-opacity="1"><g transform="translate(200.792852, 142.004476)"><g><path d="M 44.8125 0 L 8.15625 0 L 8.15625 -137.6875 L 77.25 -137.6875 C 86.53125 -137.6875 94.335938 -136.382812 100.671875 -133.78125 C 107.003906 -131.175781 112.09375 -127.722656 115.9375 -123.421875 C 119.789062 -119.117188 122.59375 -114.28125 124.34375 -108.90625 C 126.101562 -103.53125 126.984375 -98.066406 126.984375 -92.515625 L 126.984375 -92.359375 C 126.984375 -84.203125 125.285156 -76.503906 121.890625 -69.265625 C 118.492188 -62.023438 113.144531 -56.164062 105.84375 -51.6875 C 98.550781 -47.21875 89.019531 -44.984375 77.25 -44.984375 L 44.8125 -44.984375 Z M 44.8125 -103.5625 L 44.8125 -76.390625 L 73.515625 -76.390625 C 84.265625 -76.390625 89.640625 -80.863281 89.640625 -89.8125 L 89.640625 -89.96875 C 89.640625 -94.5 88.363281 -97.894531 85.8125 -100.15625 C 83.269531 -102.425781 79.171875 -103.5625 73.515625 -103.5625 Z M 44.8125 -103.5625 "/></g></g></g><g fill="#737373" fill-opacity="1"><g transform="translate(332.699198, 142.004476)"><g><path d="M 69.09375 -34.296875 L 69.09375 -99.984375 L 106.109375 -99.984375 L 106.109375 -1.53125 C 106.109375 6.394531 104.773438 12.988281 102.109375 18.25 C 99.453125 23.507812 95.800781 27.695312 91.15625 30.8125 C 86.519531 33.925781 81.316406 36.160156 75.546875 37.515625 C 69.773438 38.878906 63.71875 39.5625 57.375 39.5625 C 53.082031 39.5625 48.726562 39.332031 44.3125 38.875 C 39.894531 38.425781 35.90625 37.890625 32.34375 37.265625 C 28.78125 36.640625 26.035156 36.046875 24.109375 35.484375 L 15.453125 1.53125 C 18.960938 2.769531 23.035156 3.8125 27.671875 4.65625 C 32.304688 5.507812 36.832031 6.132812 41.25 6.53125 C 45.664062 6.925781 49.289062 7.125 52.125 7.125 C 58.800781 7.125 63.296875 6.25 65.609375 4.5 C 67.929688 2.75 69.09375 -0.445312 69.09375 -5.09375 L 69.09375 -7.296875 C 65.25 -6.960938 61.398438 -6.796875 57.546875 -6.796875 C 51.210938 -6.796875 45.070312 -7.414062 39.125 -8.65625 C 33.1875 -9.90625 27.894531 -12 23.25 -14.9375 C 18.613281 -17.882812 14.9375 -21.929688 12.21875 -27.078125 C 9.507812 -32.222656 8.15625 -38.757812 8.15625 -46.6875 L 8.15625 -100.328125 L 45.15625 -100.328125 L 45.15625 -44.984375 C 45.15625 -40.796875 46.226562 -37.851562 48.375 -36.15625 C 50.53125 -34.457031 54.039062 -33.609375 58.90625 -33.609375 C 60.269531 -33.609375 61.910156 -33.664062 63.828125 -33.78125 C 65.753906 -33.894531 67.507812 -34.066406 69.09375 -34.296875 Z M 69.09375 -34.296875 "/></g></g></g><g fill="#737373" fill-opacity="1"><g transform="translate(446.950107, 142.004476)"><g><path d="M 89.96875 0 L 50.9375 0 C 39.613281 0 31.460938 -2.742188 26.484375 -8.234375 C 21.503906 -13.722656 19.015625 -22.125 19.015625 -33.4375 L 19.015625 -66.375 L 3.0625 -66.375 L 3.0625 -100.328125 L 19.015625 -100.328125 L 19.015625 -128.515625 L 56.015625 -128.515625 L 56.015625 -100.328125 L 89.96875 -100.328125 L 89.96875 -66.375 L 56.015625 -66.375 L 56.015625 -45.15625 C 56.015625 -41.757812 56.921875 -39.097656 58.734375 -37.171875 C 60.546875 -35.253906 63.660156 -34.296875 68.078125 -34.296875 L 89.96875 -34.296875 Z M 89.96875 0 "/></g></g></g><g fill="#737373" fill-opacity="1"><g transform="translate(543.885102, 142.004476)"><g><path d="M 56.53125 -105.078125 C 62.976562 -105.078125 69.144531 -104.453125 75.03125 -103.203125 C 80.914062 -101.960938 86.207031 -99.867188 90.90625 -96.921875 C 95.601562 -93.984375 99.3125 -89.941406 102.03125 -84.796875 C 104.75 -79.648438 106.109375 -73.113281 106.109375 -65.1875 L 106.109375 0 L 69.09375 0 L 69.09375 -60.609375 C 69.09375 -64.796875 68.015625 -67.765625 65.859375 -69.515625 C 63.710938 -71.273438 60.207031 -72.15625 55.34375 -72.15625 C 53.988281 -72.15625 52.40625 -72.039062 50.59375 -71.8125 C 48.78125 -71.582031 46.96875 -71.351562 45.15625 -71.125 L 45.15625 0 L 8.15625 0 L 8.15625 -137.6875 L 45.15625 -137.6875 L 45.15625 -104.578125 C 49.570312 -104.910156 53.363281 -105.078125 56.53125 -105.078125 Z M 56.53125 -105.078125 "/></g></g></g><g fill="#737373" fill-opacity="1"><g transform="translate(658.136011, 142.004476)"><g><path d="M 63.5 3.0625 C 52.175781 3.0625 42.210938 0.742188 33.609375 -3.890625 C 25.015625 -8.535156 18.3125 -14.929688 13.5 -23.078125 C 8.6875 -31.234375 6.28125 -40.570312 6.28125 -51.09375 L 6.28125 -51.265625 C 6.28125 -61.796875 8.65625 -71.101562 13.40625 -79.1875 C 18.164062 -87.28125 24.84375 -93.617188 33.4375 -98.203125 C 42.039062 -102.785156 52.0625 -105.078125 63.5 -105.078125 C 74.925781 -105.078125 84.9375 -102.785156 93.53125 -98.203125 C 102.132812 -93.617188 108.84375 -87.28125 113.65625 -79.1875 C 118.46875 -71.101562 120.875 -61.796875 120.875 -51.265625 L 120.875 -51.09375 C 120.875 -40.570312 118.46875 -31.234375 113.65625 -23.078125 C 108.84375 -14.929688 102.132812 -8.535156 93.53125 -3.890625 C 84.9375 0.742188 74.925781 3.0625 63.5 3.0625 Z M 63.5 -29.875 C 69.832031 -29.875 74.78125 -31.910156 78.34375 -35.984375 C 81.90625 -40.066406 83.6875 -45.160156 83.6875 -51.265625 L 83.6875 -51.4375 C 83.6875 -57.550781 81.90625 -62.53125 78.34375 -66.375 C 74.78125 -70.226562 69.832031 -72.15625 63.5 -72.15625 C 57.269531 -72.15625 52.34375 -70.226562 48.71875 -66.375 C 45.101562 -62.53125 43.296875 -57.550781 43.296875 -51.4375 L 43.296875 -51.265625 C 43.296875 -45.160156 45.101562 -40.066406 48.71875 -35.984375 C 52.34375 -31.910156 57.269531 -29.875 63.5 -29.875 Z M 63.5 -29.875 "/></g></g></g><g fill="#737373" fill-opacity="1"><g transform="translate(785.288942, 142.004476)"><g><path d="M 45.15625 0 L 8.15625 0 L 8.15625 -99.484375 C 13.8125 -100.503906 19.75 -101.4375 25.96875 -102.28125 C 32.195312 -103.132812 38.054688 -103.8125 43.546875 -104.3125 C 49.035156 -104.820312 53.421875 -105.078125 56.703125 -105.078125 C 63.035156 -105.078125 69.171875 -104.453125 75.109375 -103.203125 C 81.054688 -101.960938 86.347656 -99.867188 90.984375 -96.921875 C 95.628906 -93.984375 99.3125 -89.941406 102.03125 -84.796875 C 104.75 -79.648438 106.109375 -73.113281 106.109375 -65.1875 L 106.109375 0 L 69.09375 0 L 69.09375 -60.609375 C 69.09375 -64.796875 68.015625 -67.765625 65.859375 -69.515625 C 63.710938 -71.273438 60.207031 -72.15625 55.34375 -72.15625 C 52.289062 -72.15625 48.894531 -71.8125 45.15625 -71.125 Z M 45.15625 0 "/></g></g></g></svg>